<svg xmlns="http://www.w3.org/2000/svg" viewBox="0 0 106.1 97.04"><defs><style>.cls-1{fill:none;stroke:#2e3192;stroke-miterlimit:10;stroke-width:2px;}</style></defs><title>Asset 4</title><g id="Layer_2" data-name="Layer 2"><g id="Layer_2-2" data-name="Layer 2"><path class="cls-1" d="M89.23,21.68c-9,0-14.44,1.06-23.14,7.33a127.72,127.72,0,0,1-13,8.37A127.66,127.66,0,0,1,40,29c-8.71-6.27-14.18-7.33-23.14-7.33C7.23,21.68,1,28.71,1,39.59c0,6.53,6.21,11.34,11.69,15.59,3.71,2.87,7.54,5.84,7.54,8.1,0,3.51-1.65,5.92-3.25,8.25-1.29,1.88-2.51,3.66-2.51,5.78,0,3.2,3.34,4.63,6,5.77a11.64,11.64,0,0,1,3.09,1.65c0,.43,0,1,0,1.67-.08,2.33-.18,5.52,1.9,7.68A7.35,7.35,0,0,0,31,96c5.54,0,7.34-3,8.92-5.61a12.66,12.66,0,0,1,3-3.81c4-3.07,10-3.12,10.1-3.12s6.15.06,10.11,3.12a12.68,12.68,0,0,1,3,3.81C67.77,93.06,69.57,96,75.11,96a7.35,7.35,0,0,0,5.51-2c2.08-2.15,2-5.35,1.9-7.68,0-.63,0-1.24,0-1.67a11.64,11.64,0,0,1,3.09-1.65c2.68-1.15,6-2.57,6-5.77,0-2.11-1.22-3.89-2.51-5.78-1.6-2.33-3.25-4.74-3.25-8.25,0-2.25,3.83-5.22,7.54-8.1,5.48-4.25,11.69-9.06,11.69-15.59C105.1,28.71,98.87,21.68,89.23,21.68ZM72.7,84.78a3.63,3.63,0,1,1,3.63-3.63A3.63,3.63,0,0,1,72.7,84.78Zm-39.3,0A3.63,3.63,0,1,1,37,81.15,3.63,3.63,0,0,1,33.4,84.78Zm19.65-13.1c-10.75,0-19.49-5.68-19.49-12.6,0-5.24,5.36-10,13-11.84a7.07,7.07,0,0,0,4.51,4.08l.12,0,.51.12.3,0h.11l.26,0a7,7,0,0,0,1.39,0l.27,0,.11,0,.3,0,.49-.12.14,0a7.07,7.07,0,0,0,4.51-4.08c7.62,1.79,13,6.6,13,11.84C72.54,66,63.79,71.66,53.05,71.69ZM42.33,5.63A4.64,4.64,0,0,1,47,1H59.13a4.63,4.63,0,1,1,0,9.26H47A4.64,4.64,0,0,1,42.33,5.63Zm21,10.58a4.64,4.64,0,0,1-4.63,4.63H47.43a4.63,4.63,0,0,1,0-9.26H58.67A4.64,4.64,0,0,1,63.3,16.21ZM61,26.79a4.64,4.64,0,0,1-4.63,4.63H49.75a4.63,4.63,0,0,1,0-9.26h6.59A4.64,4.64,0,0,1,61,26.79Z"/></g></g></svg>