<svg xmlns="http://www.w3.org/2000/svg" viewBox="0 0 79.73 89.83"><defs><style>.cls-1{fill:none;stroke:#2e3192;stroke-miterlimit:10;stroke-width:2px;}</style></defs><title>Asset 6</title><g id="Layer_2" data-name="Layer 2"><g id="Layer_2-2" data-name="Layer 2"><path class="cls-1" d="M9.8,18.57c1.66,0,3-1.62,3-3.6s-1.35-3.6-3-3.6S6.8,13,6.8,15,8.14,18.57,9.8,18.57Z"/><path class="cls-1" d="M16.78,15.17c1.66,0,3-1.62,3-3.6S18.44,8,16.78,8s-3,1.62-3,3.6S15.13,15.17,16.78,15.17Z"/><path class="cls-1" d="M27.75,17.09c-2.61,0-5.87,1.08-10.58,3.5-1.35.69-2.55,1.29-3.61,1.81-4.48,2.21-6.08,3.07-7.25,5.11l0,.06C4.9,30,2.58,34.06,3.75,39.76a42.18,42.18,0,0,0,1.92,6.09c1.85,5,4.39,12,6.76,27,1.61,10.29,5.4,16,10.65,16a6,6,0,0,0,1.7-.23l.23-.07c.54-.15,9-2.81,7.37-18-2-18.73-.08-25.13,2.89-32.12.27-.65.59-1.3.92-2,2.16-4.48,4.39-9.11-1.43-15.64C32.51,18.22,30.35,17.09,27.75,17.09Z"/><path class="cls-1" d="M27.75,12.44A12.33,12.33,0,0,1,35.37,15a9.08,9.08,0,0,0,1.9-5.64C37.26,4.75,34,1,30,1s-7.24,3.75-7.24,8.36A9.39,9.39,0,0,0,23.52,13,17.08,17.08,0,0,1,27.75,12.44Z"/><path class="cls-1" d="M7,20.6s0-.07,0-.1c0-2-1.35-3.6-3-3.6s-3,1.62-3,3.6a3.59,3.59,0,0,0,2.12,3.44A13,13,0,0,1,7,20.6Z"/><path class="cls-1" d="M69.93,18.57c1.66,0,3-1.62,3-3.6s-1.35-3.6-3-3.6-3,1.62-3,3.6S68.28,18.57,69.93,18.57Z"/><path class="cls-1" d="M62.95,15.17c1.66,0,3-1.62,3-3.6S64.6,8,62.95,8s-3,1.62-3,3.6S61.29,15.17,62.95,15.17Z"/><path class="cls-1" d="M73.41,27.52c-1.16-2-2.77-2.91-7.25-5.11-1.06-.52-2.27-1.12-3.61-1.81-4.71-2.42-8-3.5-10.58-3.5s-4.75,1.13-7,3.66c-5.82,6.54-3.58,11.17-1.43,15.64.33.69.65,1.35.92,2,3,7,4.91,13.38,2.89,32.12-1.65,15.23,6.83,17.88,7.37,18l.23.07a6,6,0,0,0,1.7.23c5.26,0,9-5.66,10.65-16,2.36-15.07,4.9-22,6.76-27A42.19,42.19,0,0,0,76,39.76c1.17-5.7-1.15-9.75-2.53-12.18Z"/><path class="cls-1" d="M52,12.44a17.09,17.09,0,0,1,4.24.57,9.39,9.39,0,0,0,.73-3.65C56.94,4.75,53.7,1,49.71,1s-7.24,3.75-7.24,8.36A9.08,9.08,0,0,0,44.36,15,12.33,12.33,0,0,1,52,12.44Z"/><path class="cls-1" d="M75.73,16.9c-1.66,0-3,1.62-3,3.6,0,0,0,.07,0,.1a13,13,0,0,1,3.88,3.34,3.59,3.59,0,0,0,2.12-3.44C78.73,18.51,77.39,16.9,75.73,16.9Z"/></g></g></svg>