<svg xmlns="http://www.w3.org/2000/svg" viewBox="0 0 63 56.18"><defs><style>.cl-1{fill:#444963;}</style></defs><title>Asset 11</title><g id="Layer_2" data-name="Layer 2"><g id="Layer_2-2" data-name="Layer 2"><path class="cl-1" d="M2.18,33.46H7.31V54a2.21,2.21,0,0,0,2.2,2.2h15a2.21,2.21,0,0,0,2.2-2.2V39H35.9V54a2.21,2.21,0,0,0,2.2,2.2h14.3a2.21,2.21,0,0,0,2.2-2.2V33.46h6.23a2.19,2.19,0,0,0,1.54-3.74L33.7.65a2.19,2.19,0,0,0-3.08,0L.67,29.68A2.2,2.2,0,0,0,.16,32.1,2.14,2.14,0,0,0,2.18,33.46ZM32.09,5.31,55.54,29.06H52.39a2.21,2.21,0,0,0-2.2,2.2V51.78H40.3v-15a2.21,2.21,0,0,0-2.2-2.2H24.54a2.21,2.21,0,0,0-2.2,2.2v15H11.71V31.26a2.21,2.21,0,0,0-2.2-2.2H7.6Z"/></g></g></svg>
