<svg xmlns="http://www.w3.org/2000/svg" viewBox="0 0 89 89"><defs><style>.cls-1{fill:none;stroke:#2e3192;stroke-miterlimit:10;stroke-width:2px;}</style></defs><title>Asset 7</title><g id="Layer_2" data-name="Layer 2"><g id="Layer_2-2" data-name="Layer 2"><path class="cls-1" d="M4.08,47.58h6.76A33.77,33.77,0,0,0,41.42,78.16v6.76a3.08,3.08,0,1,0,6.16,0V78.16A33.77,33.77,0,0,0,78.16,47.58h6.76a3.08,3.08,0,1,0,0-6.16H78.16A33.77,33.77,0,0,0,47.58,10.84V4.08a3.08,3.08,0,1,0-6.16,0v6.76A33.77,33.77,0,0,0,10.84,41.42H4.08A3,3,0,0,0,1,44.5,3.09,3.09,0,0,0,4.08,47.58ZM29.4,41.42H17A27.64,27.64,0,0,1,41.42,17V29.4a3.08,3.08,0,1,0,6.16,0V17A27.64,27.64,0,0,1,72,41.42H59.6a3.08,3.08,0,0,0,0,6.16H72A27.64,27.64,0,0,1,47.58,72V59.6a3.08,3.08,0,0,0-6.16,0V72A27.64,27.64,0,0,1,17,47.58H29.4a3.09,3.09,0,0,0,3.08-3.08A3.14,3.14,0,0,0,29.4,41.42Z"/></g></g></svg>