<svg xmlns="http://www.w3.org/2000/svg" viewBox="0 0 56.75 58.02"><defs><style>.cls-1{fill:#444963;}</style></defs><title>Asset 9</title><g id="Layer_2" data-name="Layer 2"><g id="Layer_2-2" data-name="Layer 2"><path class="cls-1" d="M52.87,46.92a1.53,1.53,0,0,0,.07-.33V38.71c0-6.36-4.84-11.52-10.79-11.52S31.36,32.35,31.36,38.71v6.9c0,4.67-3.48,8.47-7.75,8.47s-7.74-3.8-7.74-8.47v-16A14.7,14.7,0,0,0,29.45,15V1.52A1.52,1.52,0,0,0,27.93,0H23.1a1.52,1.52,0,1,0,0,3h3.3V15A11.68,11.68,0,0,1,3,15V3H6.6a1.52,1.52,0,0,0,0-3H1.52A1.52,1.52,0,0,0,0,1.52V15A14.7,14.7,0,0,0,12.83,29.51V45.61c0,6.36,4.84,11.52,10.79,11.52S34.41,52,34.41,45.61v-6.9c0-4.67,3.48-8.48,7.74-8.48s7.74,3.8,7.74,8.48v7.88a.61.61,0,0,0,0,.11,5.76,5.76,0,1,0,3,.21ZM51,55A2.67,2.67,0,1,1,53.7,52.3,2.68,2.68,0,0,1,51,55Z"/></g></g></svg>