<svg xmlns="http://www.w3.org/2000/svg" viewBox="0 0 85.8 85.42"><defs><style>.cls-1{fill:none;stroke:#2e3192;stroke-miterlimit:10;stroke-width:2.41px;}</style></defs><title>Asset 5</title><g id="Layer_2" data-name="Layer 2"><g id="Layer_2-2" data-name="Layer 2"><path class="cls-1" d="M54,33.83a9.09,9.09,0,0,1,9.14,5.05c.68,1.09,3.61,4.47,14.53,3.92l7-.73V12.69A3.59,3.59,0,0,0,81,9.1H70.46a3.59,3.59,0,0,0-3.6,3.59v4.6a3.6,3.6,0,0,1-3.6,3.59H22.7a3.59,3.59,0,0,1-3.6-3.59v-4.6a3.59,3.59,0,0,0-3.6-3.59H4.81a3.59,3.59,0,0,0-3.6,3.59V70.86l4.69-4.29c0-.27.62-1,2-2.5,6.28-6.4,7-10.56,6.88-12.52a9,9,0,0,1-.25-1.2l-.05-.12,0,0a9.1,9.1,0,0,1,15.71-7.26,8.91,8.91,0,0,1,2.18,4.16,10.25,10.25,0,0,0,5.42,5.68A9,9,0,0,1,41.05,68a9.13,9.13,0,0,1-10.38,1.37c-1.21-.48-5.63-1.39-14,5.54L6.45,84.21H81a3.6,3.6,0,0,0,3.6-3.59V55.49l-3.31.35c-.16.21-1.09.47-3.12.79-8.87,1.41-11.95,4.3-13,6a9.48,9.48,0,0,1-.51,1.12.67.67,0,0,0,0,.13h-.05a9.11,9.11,0,0,1-17-3.51,8.9,8.9,0,0,1,.76-4.66,10.21,10.21,0,0,0-1-7.75A9,9,0,0,1,54,33.83ZM40.82,47.15c-2.48.66-7.47-6-7.47-6-3.35-3.78,6.24-7.54,7.82-6.39S43.29,46.49,40.82,47.15Z"/><path class="cls-1" d="M62.82,4.79a3.6,3.6,0,0,0-3.61-3.59H26.74a3.59,3.59,0,0,0-3.6,3.59v8.62A3.59,3.59,0,0,0,26.74,17H59.21a3.59,3.59,0,0,0,3.6-3.59V4.79Z"/></g></g></svg>