<svg xmlns="http://www.w3.org/2000/svg" viewBox="0 0 57 57"><defs><style>.cls-1{fill:#444963;}</style></defs><title>Asset 10</title><g id="Layer_2" data-name="Layer 2"><g id="Layer_2-2" data-name="Layer 2"><path class="cls-1" d="M49.19,28.8H46.28a17.22,17.22,0,0,0-17.2-17.2V8.69A20.12,20.12,0,0,1,49.19,28.8ZM29.08,13.71v2.9A12.19,12.19,0,0,1,41.26,28.8h2.91A15.1,15.1,0,0,0,29.08,13.71ZM28.5,0a28.5,28.5,0,1,0,0,57,1.76,1.76,0,0,0,0-3.52,25,25,0,1,1,25-25c0,5.76-3.06,11.46-7.45,13.88a10.77,10.77,0,0,1-5.16,1.33A8.26,8.26,0,0,0,43.65,41a3.75,3.75,0,0,0,.42-.63A28.34,28.34,0,0,0,45,36c.42-1.86-8.13-5.48-8.87-3.17-.27.86-.68,3.57-1.22,4.29s-1.66.34-2.4-.29c-1.95-1.66-4.13-4.1-6-6h0l-.16-.16-.16-.16h0c-1.93-1.91-4.37-4.08-6-6-.63-.74-.93-1.92-.29-2.4s3.43-.95,4.29-1.22c2.31-.74-1.31-9.3-3.17-8.87a28.18,28.18,0,0,0-4.39,1,4.13,4.13,0,0,0-.63.42c-4.88,3.1-5.51,10.61-.75,16.21,1.82,2.14,3.71,4.22,5.66,6.24h0L21,36l.15.17h0c2,2,4.42,4.82,8.32,7.42,8.21,5.48,14.5,4,18.21,1.92,6.4-3.53,9.27-11.06,9.27-17A28.53,28.53,0,0,0,28.5,0Z"/></g></g></svg>